<svg width="120" height="142" viewBox="0 0 120 142" fill="none" xmlns="http://www.w3.org/2000/svg">
<path d="M0.576172 78.0967L59.7195 114.561V141.195L0.576172 104.809V78.0967Z" stroke="white" stroke-linejoin="round"/>
<path d="M118.887 78.126L59.7324 114.576V141.196L118.887 104.838V78.126Z" stroke="white" stroke-linejoin="round"/>
<path d="M0.576172 78.0969L59.7312 114.576L118.886 78.0969L60.0544 41.6182L0.576172 78.0969Z" stroke="white" stroke-linejoin="round"/>
<path d="M10.4395 84.197L59.7352 114.576L109.031 84.197L60.0046 53.6338L10.4395 84.197Z" stroke="white" stroke-linejoin="round"/>
<path d="M34.0996 84.012L59.7334 99.7867L85.3673 84.012L59.8735 68.2373L34.0996 84.012Z" fill="#FFB852"/>
<path d="M64.3924 79.515L61.9647 78.1133C61.9221 78.0888 61.9221 78.0888 61.8795 78.1133L48.3355 82.1461L48.2929 82.1707L48.2929 82.2199L50.3798 83.4248C50.4224 83.4494 50.4224 83.4494 50.465 83.4248L53.7872 82.3429L56.9815 84.1871L55.1075 86.1051C55.0649 86.1297 55.1075 86.1543 55.1075 86.1543L57.2797 87.4084C57.2797 87.4084 57.3222 87.433 57.3648 87.4084L57.4074 87.3838L64.3924 79.5642C64.435 79.5396 64.3924 79.515 64.3924 79.515ZM61.3684 79.7855C61.0703 80.1051 60.7296 80.4002 60.4314 80.7199C59.9629 81.1871 59.4518 81.6789 58.9833 82.1461L58.2593 82.9084L56.0019 81.6051L57.3222 81.1871C58.6 80.7445 60.0481 80.2527 61.3684 79.7855ZM60.687 89.2773L70.9515 83.351C70.9941 83.3265 70.9515 83.3019 70.9089 83.2773L68.8645 82.097C68.8219 82.0724 68.7367 82.0724 68.7367 82.0724L58.4722 87.9986C58.4296 88.0232 58.4722 88.0478 58.5148 88.0724L60.5592 89.2527C60.6018 89.2773 60.6444 89.3019 60.687 89.2773Z" fill="black"/>
<path d="M0.576172 37.6738L59.7195 74.1388V84.0119L0.576172 47.6259V37.6738Z" stroke="white" stroke-linejoin="round"/>
<path d="M118.887 37.582L59.7324 74.149V84.0081L118.887 47.5339V37.582Z" stroke="white" stroke-linejoin="round"/>
<path d="M0.576172 37.6741L59.7312 74.153L118.886 37.6741L60.0544 1.19531L0.576172 37.6741Z" stroke="white" stroke-linejoin="round"/>
<path d="M76.5101 46.9259L61.8933 48.9288L61.5932 46.0756L72.5559 44.5733L71.6554 36.0135L75.3095 35.5127L76.5101 46.9259ZM46.9112 29.3164L47.8116 37.8763L44.1574 38.377L42.957 26.9638L57.5735 24.9609L57.8736 27.8143L46.9112 29.3164Z" fill="#FFB852"/>
</svg>
