<svg width="147" height="130" viewBox="0 0 147 130" fill="none" xmlns="http://www.w3.org/2000/svg">
<path d="M66.023 54.8047V83.4268L37.8555 69.2779L66.023 54.8047Z" stroke="white" stroke-linejoin="round"/>
<path d="M120.223 20.834L94.623 33.779L120.68 46.8911" stroke="white" stroke-linejoin="round"/>
<path d="M1.05469 15.2792L29.2222 29.3631L57.8442 15.2792L29.6766 1.19531L1.05469 15.2792Z" stroke="white" stroke-linejoin="round"/>
<path d="M66.4766 47.7635L94.6441 33.9069L66.4766 19.9922V47.7635Z" stroke="white" stroke-linejoin="round"/>
<path d="M57.8466 15.2793L29.2246 29.3632V64.7999L57.8466 50.6512V15.2793Z" stroke="white" stroke-linejoin="round"/>
<path d="M29.5328 29.4325L1.36523 15.3486V50.7206L29.5328 64.8693V29.4325Z" stroke="white" stroke-linejoin="round"/>
<path d="M24.2232 33.5599L5.9375 24.417V47.3796L24.2232 56.5646V33.5599Z" fill="#FFB852"/>
<path d="M17.909 40.0172C17.9889 40.9967 17.698 41.4903 17.0363 41.498C17.5559 41.9416 17.9445 42.43 18.2021 42.9634C18.4597 43.4967 18.5596 44.1031 18.5019 44.7826C18.4708 45.1287 18.3986 45.4076 18.2854 45.6191C18.1721 45.8307 18.0289 45.9762 17.8557 46.0557C17.6825 46.1352 17.4671 46.1608 17.2095 46.1326C16.9519 46.1044 16.6821 46.0371 16.4001 45.9307C16.1181 45.8243 15.795 45.6762 15.4308 45.4864L15.4308 47.448L14.4049 46.8557L14.4049 44.9249C14.0496 44.7198 13.7787 44.5608 13.5922 44.448L13.5922 46.3864L12.5663 45.7941L12.5663 43.8326C12.4863 43.7864 12.3664 43.7159 12.2066 43.6211C12.0467 43.5262 11.9245 43.4544 11.8402 43.4057L10.5078 42.6364L10.7143 41.348L11.4538 41.7749C11.6758 41.9031 11.8046 41.8467 11.8402 41.6057L11.8402 38.5134L11.9467 38.5749C11.9201 38.5544 11.8846 38.5313 11.8402 38.5057L11.8402 36.298C11.7824 35.9159 11.5848 35.6275 11.2473 35.4326L10.5078 35.0057L10.5078 33.7441L11.9201 34.5672C12.2043 34.7313 12.4197 34.8531 12.5663 34.9326L12.5663 32.9941L13.5922 33.5864L13.5922 35.4864C13.9564 35.6864 14.2273 35.8377 14.4049 35.9403L14.4049 34.0557L15.4308 34.648L15.4308 36.5864C15.7817 36.8249 16.0926 37.0621 16.3635 37.298C16.6344 37.5339 16.8853 37.7941 17.1163 38.0787C17.3472 38.3634 17.5304 38.6691 17.6658 38.996C17.8013 39.323 17.8824 39.6634 17.909 40.0172ZM16.4767 43.3826C16.4767 43.198 16.4434 43.0146 16.3768 42.8326C16.3102 42.6505 16.228 42.4852 16.1303 42.3364C16.0326 42.1877 15.9049 42.0358 15.7473 41.8807C15.5896 41.7255 15.4442 41.5941 15.3109 41.4864C15.1777 41.3787 15.0134 41.2608 14.818 41.1326C14.6225 41.0044 14.4693 40.9082 14.3583 40.8441C14.2473 40.78 14.104 40.6999 13.9286 40.6037C13.7532 40.5076 13.6477 40.4493 13.6122 40.4287L13.6122 43.0287C13.6477 43.0493 13.7299 43.098 13.8587 43.1749C13.9875 43.2518 14.094 43.3146 14.1784 43.3634C14.2628 43.4121 14.3805 43.4762 14.5315 43.5557C14.6825 43.6352 14.8124 43.6999 14.9212 43.7499C15.03 43.7999 15.1566 43.8512 15.3009 43.9037C15.4453 43.9563 15.5685 43.9916 15.6707 44.0095C15.7728 44.0275 15.8783 44.0345 15.9871 44.0307C16.0959 44.0268 16.1836 44.0005 16.2502 43.9518C16.3168 43.9031 16.3712 43.8319 16.4134 43.7384C16.4556 43.6448 16.4767 43.5262 16.4767 43.3826ZM16.0037 39.448C16.0037 39.2787 15.976 39.1127 15.9205 38.9499C15.865 38.7871 15.7972 38.6403 15.7173 38.5095C15.6373 38.3787 15.5308 38.2454 15.3975 38.1095C15.2643 37.9736 15.1422 37.8608 15.0311 37.771C14.9201 37.6813 14.7835 37.5819 14.6214 37.473C14.4593 37.364 14.3305 37.2832 14.2351 37.2307C14.1396 37.1781 14.0197 37.1114 13.8753 37.0307C13.731 36.9499 13.6433 36.9005 13.6122 36.8826L13.6122 39.2441C13.6344 39.2569 13.711 39.3025 13.842 39.3807C13.973 39.4589 14.0763 39.5185 14.1518 39.5595C14.2273 39.6005 14.3383 39.6595 14.4849 39.7364C14.6314 39.8134 14.7536 39.8698 14.8513 39.9057C14.949 39.9416 15.0633 39.9794 15.1943 40.0191C15.3254 40.0589 15.4331 40.0736 15.5174 40.0634C15.6018 40.0531 15.684 40.0313 15.7639 39.998C15.8439 39.9646 15.9038 39.9005 15.9438 39.8057C15.9838 39.7108 16.0037 39.5916 16.0037 39.448Z" fill="black"/>
<path d="M146.178 34.3252L92.4688 61.431V129.196L146.178 102.09V34.3252Z" stroke="white" stroke-linejoin="round"/>
<path d="M133.131 91.9619L106.523 105.783V70.8623L133.131 57.2295V91.9619Z" stroke="white"/>
<path d="M133.629 92.0499L106.021 77.9951" stroke="white" stroke-linejoin="round"/>
<path d="M92.4847 96.6212L64.877 82.5664" stroke="white" stroke-linejoin="round"/>
<path d="M37.7578 69.4445V102.065L92.4713 129.196V61.3701L66.0265 48.3799V83.5264L37.7578 69.4445Z" stroke="white" stroke-linejoin="round"/>
<path d="M66.2793 83.9199V115.463" stroke="white"/>
<path d="M92.0328 61.4304L65.8633 48.2273L94.5961 33.8474L66.5557 19.8182L92.0328 6.7168L146.177 34.0737L92.0328 61.4304Z" stroke="white" stroke-linejoin="round"/>
<path d="M29.4512 29.3633L65.799 48.1865M29.4512 65.0273L37.9528 69.4193" stroke="white" stroke-linejoin="round" stroke-dasharray="1.2 1.2"/>
<path d="M66.4911 19.9912L57.8418 15.5059" stroke="white" stroke-linejoin="round" stroke-dasharray="1.2 1.2"/>
</svg>
