<svg width="31" height="31" viewBox="0 0 31 31" fill="none" xmlns="http://www.w3.org/2000/svg">
<g clip-path="url(#clip0_4339_2792)">
<path d="M16.0358 1.56641C15.2295 1.56641 14.4945 1.99141 13.027 2.83766L4.98828 7.47016C3.60406 8.25218 2.45052 9.38538 1.64401 10.7555C0.837488 12.1256 0.406509 13.6841 0.394531 15.2739L0.394531 15.5689C0.406598 17.1567 0.836586 18.7132 1.64124 20.0821C2.4459 21.4509 3.59684 22.5836 4.97828 23.3664L10.007 26.2702C12.9495 27.9702 14.4208 28.8227 16.037 28.8227C17.652 28.8239 19.1245 27.9752 22.0683 26.2752L27.382 23.2089C28.8533 22.3589 29.587 21.9339 29.9908 21.2352C30.3945 20.5352 30.3958 19.6852 30.3945 17.9852V14.6977C30.3948 14.4696 30.335 14.2454 30.2213 14.0478C30.1075 13.8501 29.9437 13.6858 29.7464 13.5714C29.5491 13.4571 29.3251 13.3966 29.0971 13.3962C28.869 13.3957 28.6448 13.4553 28.447 13.5689L17.537 19.8489C16.8033 20.2702 16.437 20.4827 16.0358 20.4827C15.632 20.4827 15.2658 20.2727 14.5308 19.8502L7.15078 15.6089C6.77953 15.3952 6.59328 15.2889 6.44453 15.2702C6.28025 15.2491 6.1136 15.2828 5.97035 15.3659C5.82711 15.449 5.71524 15.5771 5.65203 15.7302C5.59578 15.8689 5.59578 16.0827 5.59828 16.5114C5.60078 16.8264 5.59828 16.9839 5.62953 17.1289C5.69578 17.4527 5.86578 17.7452 6.11328 17.9627C6.22453 18.0589 6.36078 18.1377 6.63328 18.2952L14.527 22.8577C15.2633 23.2827 15.632 23.4952 16.0358 23.4952C16.4408 23.4952 16.807 23.2827 17.5433 22.8589L27.2183 17.2727C27.4708 17.1277 27.5958 17.0577 27.6895 17.1102C27.7833 17.1652 27.7833 17.3102 27.7833 17.6002V19.0914C27.7833 19.5164 27.7845 19.7289 27.6833 19.9027C27.5833 20.0777 27.3995 20.1827 27.0308 20.3952L19.0533 25.0014C17.5808 25.8514 16.8445 26.2764 16.037 26.2764C15.2295 26.2764 14.492 25.8514 13.022 24.9989L5.55953 20.6839L5.50578 20.6527C4.73721 20.2026 4.099 19.5602 3.65388 18.7888C3.20876 18.0173 2.97205 17.1433 2.96703 16.2527V14.8202C2.96703 13.8189 3.50078 12.8939 4.36703 12.3902C4.74342 12.1722 5.17065 12.0572 5.60561 12.057C6.04058 12.0568 6.46792 12.1713 6.84453 12.3889L13.027 15.9614C14.4945 16.8102 15.2295 17.2352 16.0358 17.2364C16.842 17.2364 17.577 16.8114 19.0483 15.9652L28.4008 10.5827C28.6085 10.4631 28.781 10.2909 28.901 10.0834C29.0209 9.87589 29.0841 9.64045 29.0841 9.40078C29.0841 9.16111 29.0209 8.92567 28.901 8.71818C28.781 8.5107 28.6085 8.33849 28.4008 8.21891L19.0445 2.83266C17.5758 1.98891 16.842 1.56641 16.037 1.56641H16.0358Z" fill="black"/>
</g>
<defs>
<clipPath id="clip0_4339_2792">
<rect width="30" height="30" fill="white" transform="translate(0.394531 0.195312)"/>
</clipPath>
</defs>
</svg>
